<svg height="512" viewBox="0 0 512 512" width="512" xmlns="http://www.w3.org/2000/svg"><g id="Chainsaw"><g id="Glyph"><path d="m505 61.212h-16.141a65.6 65.6 0 0 0 -9.4-16.362l9.22-9.219a8 8 0 0 0 -11.315-11.314l-9.219 9.219a65.618 65.618 0 0 0 -16.361-9.394v-16.142a8 8 0 0 0 -16 0v12.041a66.257 66.257 0 0 0 -44.7 10.253l-10.65-10.654a8 8 0 0 0 -11.315 11.313l9.678 9.678-29.447 29.448-9.767-9.766a8 8 0 0 0 -11.314 11.313l9.767 9.767-29.291 29.29-9.766-9.766a8 8 0 0 0 -11.315 11.313l9.767 9.77-29.29 29.291-9.767-9.767a8 8 0 0 0 -11.314 11.313l9.767 9.768-29.291 29.29-9.766-9.767a8 8 0 0 0 -11.315 11.313l9.767 9.768-29.29 29.29-9.766-9.767a8 8 0 0 0 -11.314 11.314l9.766 9.767s-35.651 35.717-35.946 36.167l-16.522 24.78-39.713-39.712c-6.949-7.079-18.967 3.8-11.314 11.313l41.977 41.976-15.344 23.014-22.173-22.173a8.059 8.059 0 0 0 -12.313 1.222l-53.189 79.779a72.118 72.118 0 0 0 8.986 90.755c26.933 26.926 75.533 28.741 102.023-.324l11.792-13.186 100.406-105.141 34.9-34.9 9.767 9.766a8 8 0 0 0 11.314-11.313l-9.767-9.767 29.29-29.29 9.767 9.766a8 8 0 0 0 11.314-11.314l-9.767-9.766 29.29-29.291 9.767 9.767a8 8 0 1 0 11.314-11.314l-9.767-9.767 29.29-29.291 9.767 9.766a8 8 0 1 0 11.314-11.313l-9.767-9.767 29.29-29.29 9.767 9.766a8 8 0 0 0 11.314-11.313l-9.767-9.767 29.45-29.451 9.678 9.677a8 8 0 0 0 11.314-11.313l-10.654-10.654a66.259 66.259 0 0 0 10.253-44.7h12.041a8 8 0 0 0 0-16zm-432.831 276.18 17.536 17.535-12.885 19.327-17.535-17.536zm38.148 142.38c-21.449 21.531-57.629 21.156-78.936-.152a56.076 56.076 0 0 1 -6.987-70.566l25.839-38.754 17.536 17.536-10.355 15.527a8 8 0 0 0 .987 10.083l58.599 58.854zm15.447-65.117a9.694 9.694 0 1 1 0-13.709 9.694 9.694 0 0 1 0 13.709zm320.977-309.663-234.261 234.26-38.733-38.732 234.261-234.261a27.409 27.409 0 0 1 38.732 0 27.409 27.409 0 0 1 0 38.732z"/></g></g></svg>