<?xml version="1.0" encoding="iso-8859-1"?>
<!-- Generator: Adobe Illustrator 19.0.0, SVG Export Plug-In . SVG Version: 6.00 Build 0)  -->
<svg version="1.1" id="Layer_1" xmlns="http://www.w3.org/2000/svg" xmlns:xlink="http://www.w3.org/1999/xlink" x="0px" y="0px"
	 viewBox="0 0 512 512" style="enable-background:new 0 0 512 512;" xml:space="preserve">
<g>
	<g>
		<g>
			<path d="M21.333,437.333c0,17.643,14.379,32,32,32H224c17.643,0,32-14.357,32-32v-74.667H21.333V437.333z"/>
			<path d="M501.333,106.667h-78.72l-12.48-24.981C404.672,70.784,393.685,64,381.504,64h-49.088l-36.075-12.011
				c-18.517-6.187-37.803-9.323-57.344-9.323H32c-17.621,0-32,14.357-32,32V160c0,17.643,14.379,32,32,32h51.563L64.768,314.069
				l-36.331,27.264h219.072l-65.045-27.883l7.232-47.061c0.789,0.171,1.557,0.277,2.325,0.277c4.779,0,9.131-3.221,10.325-8.085
				l10.667-42.667c1.429-5.717-2.048-11.499-7.765-12.928c-2.027-0.512-4.032-0.235-5.867,0.384L201.152,192h37.824
				c19.541,0,38.827-3.136,57.344-9.323l36.075-12.011h49.088c12.203,0,23.168-6.784,28.629-17.685L422.592,128h78.741
				c5.888,0,10.667-4.779,10.667-10.667S507.221,106.667,501.333,106.667z M117.333,149.333h-64
				c-5.888,0-10.667-4.779-10.667-10.667S47.445,128,53.333,128h64c5.888,0,10.667,4.779,10.667,10.667
				S123.221,149.333,117.333,149.333z M117.333,106.667h-64c-5.888,0-10.667-4.779-10.667-10.667s4.779-10.667,10.667-10.667h64
				C123.221,85.333,128,90.112,128,96S123.221,106.667,117.333,106.667z M341.333,138.667c0,5.888-4.779,10.667-10.667,10.667
				S320,144.555,320,138.667V96c0-5.888,4.779-10.667,10.667-10.667S341.333,90.112,341.333,96V138.667z"/>
		</g>
	</g>
</g>
<g>
</g>
<g>
</g>
<g>
</g>
<g>
</g>
<g>
</g>
<g>
</g>
<g>
</g>
<g>
</g>
<g>
</g>
<g>
</g>
<g>
</g>
<g>
</g>
<g>
</g>
<g>
</g>
<g>
</g>
</svg>
