<svg id="Capa_1" enable-background="new 0 0 512 512" height="512" viewBox="0 0 512 512" width="512" xmlns="http://www.w3.org/2000/svg"><g><circle cx="145.101" cy="438.551" r="59.148"/><ellipse cx="469.43" cy="455.129" rx="42.57" ry="42.57" transform="matrix(.996 -.088 .088 .996 -38.339 43.209)"/><path d="m485.51 384.362c-4.33-31.16-28.94-57.06-61.69-63.47l-241.219-47.09c-34.825-6.804-66.7 19.003-66.7 52.56v27.96c9.15-3.19 18.98-4.92 29.2-4.92 49.16 0 89.15 39.99 89.15 89.15 0 5.66-.53 11.21-1.55 16.58h164.159c0-40.02 32.55-72.57 72.57-72.57 5.52 0 10.91.62 16.08 1.8zm-149.979 10.77h-49.92c-8.29 0-15-6.72-15-15s6.71-15 15-15h49.92c8.29 0 15 6.72 15 15s-6.71 15-15 15z"/><path d="m413.39 288.292v-3.03c0-23.45-17.28-43.9-41.07-48.6l-50.443-10.001v-42.81h27.817c8.284 0 15-6.716 15-15s-6.716-15-15-15h-85.635c-8.284 0-15 6.716-15 15s6.716 15 15 15h27.818v36.863l-57.157-11.332c-11.44-2.27-23.21.51-32.26 7.64-8.62 6.78-13.74 16.67-14.22 27.32.04.01.07.01.11.02z"/><path d="m11.532 43.902c28.26 6.72 51.18 28.13 59.81 55.89l49.68 159.04c8.577-6.123 18.176-10.528 27.37-13l-48.41-154.97c-11.76-37.81-42.99-66.99-81.51-76.15-8.07-1.92-16.15 3.06-18.06 11.12-1.92 8.06 3.06 16.15 11.12 18.07z"/><path d="m85.901 326.362c0-16.96 5.23-33.26 14.77-46.97h-85.67c-8.28 0-15 6.72-15 15v54.11c0 4.49 2.01 8.74 5.47 11.59l56.44 46.4c5.22-13.5 13.63-25.42 24.31-34.81-.433-3.656-.32-1.973-.32-45.32z"/></g></svg>